<svg version="1.0" xmlns="http://www.w3.org/2000/svg" preserveAspectRatio="xMidYMid meet" viewBox="39.6 61.5 470.42 609.95">
<g transform="translate(0.000000,692.000000) scale(0.100000,-0.100000)" fill="#000000" stroke="none">
<path d="M3691 6299 c-267 -41 -469 -254 -488 -514 -3 -44 -1 -105 5 -135 17 -89 79 -225 128 -279 24 -27 44 -52 44 -55 0 -10 -45 -7 -57 5 -6 6 -39 11 -75 11 -150 1 -280 -131 -206 -209 33 -35 12 -41 -25 -7 -51 48 -83 64 -126 64 -26 0 -100 24 -214 70 -188 76 -224 82 -287 50 -45 -23 -78 -74 -110 -170 -26 -76 -21 -126 15 -181 26 -40 84 -65 287 -125 92 -27 98 -31 98 -55 0 -38 35 -77 81 -89 21 -6 40 -14 40 -18 1 -4 3 -19 5 -34 12 -102 153 -271 237 -285 33 -5 38 -9 34 -27 -7 -27 -36 -112 -53 -154 -8 -18 -14 -43 -14 -55 0 -36 -14 -47 -81 -72 -86 -30 -215 -92 -265 -126 -22 -15 -78 -49 -125 -76 -166 -96 -433 -323 -475 -405 -8 -15 -35 -49 -62 -75 -26 -26 -70 -86 -98 -133 -157 -259 -224 -440 -259 -699 -19 -131 -16 -338 4 -396 6 -16 20 -71 32 -122 11 -51 27 -97 35 -104 14 -11 20 -39 8 -39 -17 0 -87 40 -149 85 -182 134 -336 350 -416 585 -18 52 -36 99 -41 105 -4 5 -8 15 -8 23 0 18 33 12 144 -23 81 -26 86 -25 124 8 28 26 29 70 1 134 -12 26 -45 112 -75 190 -54 144 -117 287 -217 493 -31 63 -72 153 -92 200 -43 100 -59 120 -95 120 -92 0 -299 -446 -464 -1002 -43 -144 -49 -188 -29 -211 39 -42 33 -43 218 25 17 6 36 15 42 21 18 13 46 0 39 -18 -5 -13 15 -181 29 -249 113 -546 355 -987 816 -1490 31 -34 114 -124 185 -201 228 -248 244 -267 244 -282 0 -8 -8 -17 -17 -19 -32 -9 -239 -99 -261 -114 -36 -25 -13 -46 29 -27 28 12 249 84 364 117 120 36 205 40 774 40 311 1 719 5 906 10 187 5 507 12 710 15 535 8 615 13 615 35 0 13 -11 19 -46 24 -25 3 -49 4 -54 1 -4 -2 -97 0 -206 6 -109 5 -260 11 -334 13 -74 2 -245 6 -380 10 -135 4 -441 9 -680 11 -336 4 -434 8 -432 18 5 17 23 27 51 27 40 0 283 78 388 124 385 169 645 330 870 540 36 33 54 44 57 35 2 -8 10 -31 16 -51 12 -40 77 -145 102 -166 26 -21 82 8 116 61 16 25 65 128 110 229 108 244 183 493 213 707 24 170 22 200 -15 224 -23 15 -29 14 -128 -27 -57 -24 -203 -94 -323 -156 -469 -241 -521 -267 -552 -278 -41 -14 -61 -52 -46 -85 11 -25 91 -82 156 -113 21 -10 36 -22 34 -28 -6 -19 -182 -116 -285 -156 -124 -49 -243 -79 -337 -86 -38 -2 -76 -7 -83 -9 -16 -6 -171 14 -197 25 -11 5 -31 12 -45 16 -120 32 -262 145 -275 218 -18 92 18 311 85 521 5 17 35 113 66 215 31 102 73 241 95 310 21 69 97 303 170 520 73 217 139 415 147 440 8 25 28 81 44 125 16 44 34 101 40 126 10 45 12 47 52 52 55 8 205 66 342 133 137 66 239 154 273 234 17 39 26 50 39 46 9 -3 31 -8 47 -12 17 -3 91 -32 165 -64 129 -56 138 -58 185 -49 55 10 85 34 119 95 57 101 68 175 37 246 -23 54 -51 79 -104 94 -23 6 -80 24 -127 39 -47 15 -104 33 -128 39 -47 13 -62 28 -62 63 0 13 -15 40 -33 60 -18 21 -41 58 -50 83 -43 116 -159 211 -274 226 -34 4 -53 11 -53 20 0 19 37 36 61 29 42 -14 162 24 247 76 97 60 146 113 196 211 47 95 60 152 59 268 -1 240 -158 462 -388 549 -33 13 -70 27 -83 32 -35 14 -201 19 -271 8z m129 -121 c107 -14 131 -20 127 -32 -2 -6 -17 -10 -33 -8 -179 21 -273 6 -344 -55 -47 -39 -35 -42 32 -9 118 59 322 37 448 -47 116 -77 173 -177 174 -308 1 -88 -5 -108 -56 -201 -19 -34 -118 -128 -134 -128 -8 0 -14 -3 -14 -8 0 -9 -41 -26 -100 -41 -47 -12 -85 -11 -213 9 -88 14 -110 5 -122 -51 -4 -16 -11 -31 -16 -34 -22 -14 -6 -33 34 -38 23 -3 64 -16 91 -28 35 -15 59 -19 87 -15 34 5 39 4 39 -13 0 -11 -3 -21 -7 -23 -7 -2 -34 -55 -105 -200 -11 -25 -11 -25 18 -32 17 -5 35 -1 50 9 31 20 44 19 44 -4 0 -19 47 -61 69 -61 6 0 11 -3 11 -8 0 -9 62 -37 76 -34 6 1 18 -12 27 -30 13 -29 13 -42 1 -105 -28 -148 -74 -239 -124 -249 -16 -4 -32 -16 -38 -29 -6 -14 -51 -45 -114 -79 -57 -31 -119 -64 -138 -75 -19 -10 -54 -25 -77 -32 -24 -6 -43 -16 -43 -21 0 -4 -7 -8 -15 -8 -8 0 -15 4 -15 9 0 16 65 61 88 61 23 0 47 27 82 93 24 45 24 46 5 66 -10 12 -26 19 -35 16 -8 -3 -33 4 -55 15 -22 11 -45 20 -51 20 -7 0 -40 12 -74 26 -33 15 -62 25 -63 23 -11 -13 -111 -311 -116 -343 -5 -32 -12 -42 -44 -59 -60 -31 -65 -14 -24 89 19 49 40 107 47 129 6 22 25 75 41 117 16 43 29 89 29 103 0 54 -52 135 -87 135 -21 0 -49 -68 -37 -88 13 -21 -1 -89 -23 -114 -23 -25 -79 -24 -93 2 -6 11 -19 20 -28 20 -27 0 -62 29 -62 51 0 11 -10 23 -23 28 -27 11 -52 54 -43 76 7 20 34 15 106 -17 25 -12 64 -23 88 -26 41 -5 42 -4 42 26 0 17 8 50 18 74 45 105 63 247 36 286 -17 25 -34 29 -34 7 0 -30 -35 -35 -120 -18 -59 13 -85 15 -98 7 -22 -14 -72 -141 -69 -174 2 -27 36 -37 151 -45 46 -3 92 -25 53 -25 -10 0 -17 -8 -17 -20 0 -11 -4 -20 -10 -20 -5 0 -10 7 -10 15 0 10 -10 15 -34 15 -19 0 -38 5 -41 10 -3 6 -32 10 -64 10 -31 0 -62 5 -69 12 -18 18 -15 61 7 105 17 33 47 112 65 166 7 21 26 22 73 2 19 -8 46 -15 59 -15 12 0 26 -4 29 -10 10 -16 75 -12 75 4 0 8 -4 18 -10 21 -5 3 -10 17 -10 31 0 62 84 10 157 -98 29 -43 91 -72 314 -144 174 -56 168 -54 252 -94 65 -32 87 -60 47 -60 -11 0 -20 5 -20 10 0 6 -7 10 -15 10 -8 0 -34 8 -58 19 -48 21 -82 33 -147 51 -25 7 -70 21 -100 30 -30 10 -86 26 -125 35 -38 10 -87 24 -108 32 -46 19 -48 17 -71 -75 -18 -74 -18 -74 19 -112 20 -21 42 -49 49 -62 14 -30 107 -75 261 -128 67 -23 138 -52 158 -66 53 -36 147 -26 147 15 0 9 9 31 20 49 11 18 20 38 20 46 0 7 13 37 29 67 22 39 27 57 19 66 -14 18 -2 43 21 43 10 0 21 6 24 14 7 17 -19 56 -38 56 -14 0 -124 56 -139 71 -6 5 -28 9 -49 9 -24 0 -51 8 -68 21 -29 20 -95 48 -169 72 -19 6 -46 19 -59 29 -13 10 -39 18 -57 18 -30 0 -74 30 -74 51 0 11 89 89 102 89 25 0 168 -30 185 -39 108 -54 102 -53 123 -18 19 30 19 33 3 45 -9 6 -29 12 -45 12 -31 0 -132 42 -142 59 -4 6 -20 11 -36 11 -33 0 -60 9 -60 20 0 4 11 19 23 34 13 15 34 53 47 84 27 68 49 95 70 88 8 -2 48 -18 89 -35 80 -34 210 -43 268 -20 79 33 98 44 133 80 74 76 120 227 91 301 -5 13 -15 43 -22 67 -14 48 -84 132 -129 156 -17 8 -44 22 -61 31 -151 80 -397 44 -484 -70 -43 -57 -84 -144 -77 -168 4 -16 2 -20 -10 -15 -35 13 -30 -139 6 -216 20 -41 15 -58 -11 -41 -24 15 -50 69 -69 144 -50 196 104 443 315 506 31 9 67 20 81 24 14 4 30 5 35 1 6 -3 35 -9 65 -13z m128 4 c3 -9 -2 -13 -14 -10 -9 1 -19 9 -22 16 -3 9 2 13 14 10 9 -1 19 -9 22 -16z m124 -47 c13 -17 9 -35 -7 -35 -8 0 -15 6 -15 14 0 8 -9 22 -21 30 -12 8 -18 19 -14 26 7 11 37 -8 57 -35z m62 -13 c9 -14 -9 -31 -23 -23 -7 5 -10 14 -7 20 8 13 23 14 30 3z m56 -44 c0 -6 -6 -8 -14 -5 -8 3 -17 1 -19 -6 -2 -7 -8 -9 -12 -5 -10 10 18 36 32 31 7 -3 13 -10 13 -15z m40 -64 c0 -11 6 -15 20 -11 18 5 19 4 5 -16 -8 -12 -15 -25 -15 -29 0 -13 28 -9 33 5 2 7 8 8 13 3 5 -5 4 -11 -3 -13 -19 -7 -16 -53 3 -53 12 0 15 -6 10 -25 -7 -27 3 -32 22 -13 9 9 12 8 12 -4 0 -24 -26 -42 -34 -23 -3 9 -10 13 -16 10 -6 -4 -10 6 -10 23 0 17 -6 32 -15 36 -8 3 -15 14 -15 25 0 10 -8 22 -17 25 -12 5 -14 9 -5 18 16 16 15 28 -3 28 -8 0 -15 7 -15 15 0 8 7 15 15 15 8 0 15 -7 15 -16z m-327 -72 c122 -56 181 -136 180 -248 -1 -93 -65 -180 -151 -204 -171 -47 -348 50 -391 215 -18 70 24 162 99 218 73 53 172 60 263 19z m439 -212 c7 0 7 -4 0 -12 -5 -7 -12 -24 -14 -38 -4 -22 -5 -23 -13 -6 -5 11 -4 26 3 36 7 12 7 21 0 28 -6 6 -7 18 -2 29 7 15 8 14 12 -9 2 -16 8 -28 14 -28z m-916 -71 c5 -40 4 -42 -9 -24 -16 23 -22 94 -6 78 6 -6 13 -30 15 -54z m892 -19 c4 0 8 -20 9 -45 1 -33 -2 -45 -13 -45 -8 0 -14 -4 -14 -10 0 -5 5 -10 10 -10 19 0 10 -23 -20 -52 -32 -30 -37 -44 -17 -51 6 -2 0 -2 -14 0 -22 3 -28 -2 -44 -36 -18 -42 -50 -52 -82 -28 -21 15 -15 27 10 18 17 -7 27 -3 44 18 27 30 32 61 8 41 -10 -9 -15 -9 -15 -1 0 6 5 11 10 11 6 0 11 8 11 18 1 16 2 16 6 0 2 -10 7 -18 10 -18 15 0 41 33 37 45 -3 7 -1 16 5 20 14 8 14 45 1 45 -5 0 -10 7 -10 15 0 20 16 19 24 -1 5 -14 9 -14 22 -3 13 11 13 15 2 23 -18 15 -19 59 -1 51 8 -3 18 -5 21 -5z m-812 -67 c-4 -10 3 -27 21 -46 27 -28 27 -29 4 -17 -20 10 -25 10 -33 -4 -5 -9 -19 -16 -31 -16 -34 0 -50 -20 -29 -36 16 -12 15 -14 -5 -35 -25 -26 -43 -18 -26 11 10 15 9 19 -5 25 -14 5 -13 9 11 23 15 9 27 25 27 34 0 10 5 18 10 18 6 0 10 -4 10 -10 0 -5 7 -7 15 -4 11 5 12 10 5 18 -6 9 -4 19 8 34 20 26 26 28 18 5z m634 -254 c0 -20 -30 -7 -36 16 -3 14 -10 25 -15 25 -5 0 -9 6 -9 14 0 9 11 3 30 -16 17 -16 30 -34 30 -39z m-60 16 c7 -9 10 -18 7 -22 -8 -7 -37 15 -37 28 0 14 16 11 30 -6z m1 -42 c32 -19 38 -33 14 -33 -8 0 -15 5 -15 10 0 6 -9 10 -20 10 -11 0 -20 -4 -20 -10 0 -5 -5 -10 -11 -10 -6 0 -8 8 -4 19 4 14 0 21 -12 24 -11 3 -7 5 10 6 16 0 42 -7 58 -16z m-132 -42 c9 -6 0 -10 -30 -13 -24 -3 -52 -8 -61 -12 -11 -5 -18 -4 -18 2 0 22 83 39 109 23z m-637 -37 c29 -18 -35 -110 -69 -100 -10 3 -40 8 -68 12 -65 9 -68 11 -49 39 30 46 74 66 128 60 28 -4 53 -8 58 -11z m-769 -27 c23 -13 69 -33 102 -46 33 -13 69 -27 80 -31 11 -5 40 -16 65 -23 58 -19 61 -43 5 -40 -22 2 -49 7 -60 12 -62 28 -223 74 -240 68 -20 -8 -47 -71 -43 -100 2 -15 19 -28 63 -45 33 -13 80 -33 105 -43 25 -10 52 -18 60 -17 49 4 66 -16 36 -41 -11 -10 -24 -8 -57 8 -24 12 -53 21 -65 21 -13 0 -26 5 -29 10 -3 6 -15 10 -26 10 -10 0 -19 5 -19 10 0 6 -7 10 -16 10 -32 0 -93 44 -109 77 -16 33 -16 36 9 86 29 60 60 97 82 97 8 0 34 -10 57 -23z m1412 -191 c36 -15 155 -132 155 -153 0 -6 -9 -18 -21 -26 -21 -15 -21 -15 3 -22 12 -4 38 -21 56 -38 46 -44 45 -107 -4 -228 -19 -49 -33 -93 -31 -97 2 -4 -4 -20 -14 -37 -11 -16 -25 -43 -33 -60 -33 -68 -206 -208 -302 -244 -27 -10 -57 -22 -68 -26 -16 -7 -17 -6 -6 14 13 24 6 71 -10 71 -6 0 -10 7 -10 15 0 8 4 15 9 15 5 0 43 23 85 52 58 39 80 48 88 40 28 -28 61 -2 103 82 15 29 38 65 53 82 46 50 94 289 62 309 -15 9 -53 98 -51 117 1 11 -10 22 -33 32 -52 22 -126 75 -126 91 0 27 45 32 95 11z m-912 -91 c17 5 19 4 7 -4 -12 -8 -11 -13 5 -31 21 -23 26 -71 8 -77 -6 -2 -13 8 -15 23 -2 15 -10 30 -18 32 -13 4 -13 3 -2 -11 25 -30 -46 -51 -75 -22 -8 9 -13 19 -9 22 3 4 12 1 18 -5 7 -7 18 -12 26 -12 9 0 4 8 -12 21 -33 26 -33 38 2 65 23 19 28 20 35 8 5 -10 16 -13 30 -9z m295 -135 c7 -11 19 -20 27 -20 8 0 15 -7 15 -15 0 -12 4 -13 19 -5 41 22 76 9 49 -18 -17 -17 3 -15 38 3 33 17 64 20 64 5 0 -5 -7 -7 -15 -4 -8 4 -15 1 -15 -6 0 -8 8 -10 21 -7 12 3 32 -1 45 -9 16 -11 35 -14 68 -9 39 6 46 5 46 -9 0 -10 8 -16 23 -16 12 0 28 -9 35 -21 10 -16 19 -19 43 -14 34 8 38 -4 8 -23 -16 -11 -18 -16 -9 -27 14 -17 9 -19 -52 -30 -22 -3 -39 -1 -43 5 -4 6 -14 10 -23 9 -33 -4 -92 13 -92 27 0 9 -11 14 -30 14 -20 0 -39 10 -59 31 -17 17 -35 28 -41 24 -8 -5 -6 -11 6 -19 10 -8 13 -15 7 -19 -6 -4 -26 7 -44 23 -19 16 -40 28 -46 25 -15 -5 -83 33 -83 46 0 5 5 9 10 9 20 0 22 31 5 50 -14 16 -15 20 -4 20 8 0 20 -9 27 -20z m1097 -237 c132 -46 165 -61 165 -78 0 -24 -16 -25 -66 -6 -27 10 -80 28 -119 40 -105 33 -165 62 -165 81 0 27 9 29 48 13 20 -9 82 -31 137 -50z m-636 -31 c9 -16 5 -17 -36 -12 -60 7 -71 30 -14 30 28 0 43 -5 50 -18z m481 -124 c69 -31 80 -36 149 -58 35 -11 72 -20 81 -20 26 0 31 -12 13 -32 -21 -24 -50 -23 -65 2 -8 12 -24 20 -41 20 -15 0 -35 4 -45 9 -9 5 -30 14 -47 21 -16 7 -38 16 -48 21 -9 5 -38 12 -62 16 -47 6 -59 24 -28 41 19 11 29 9 93 -20z m-803 -4 c22 -24 23 -27 7 -39 -9 -6 -14 -17 -10 -23 4 -8 0 -12 -12 -12 -25 0 -34 -10 -22 -25 8 -9 6 -14 -5 -18 -9 -4 -12 -13 -8 -24 6 -16 5 -17 -11 -3 -17 14 -18 13 -12 -15 5 -25 2 -32 -18 -41 -30 -14 -46 9 -18 26 16 10 15 12 -5 26 -13 9 -23 24 -23 34 0 18 40 50 66 54 23 4 28 16 6 16 -39 0 -32 30 13 57 27 16 25 16 52 -13z m1105 -33 c-3 -30 -7 -35 -22 -26 -9 5 -9 10 -1 18 17 17 13 31 -4 17 -17 -14 -31 -7 -20 10 14 22 50 7 47 -19z m-1242 -144 c0 -20 -30 -44 -64 -53 -28 -7 -28 -7 -10 15 10 11 26 21 36 21 10 0 18 7 18 15 0 8 5 15 10 15 6 0 10 -6 10 -13z m238 -94 c-3 -12 8 -26 31 -40 34 -22 34 -22 5 -28 -16 -4 -63 -22 -104 -40 -146 -66 -190 -69 -246 -20 -51 45 -43 58 61 97 94 34 143 45 208 47 41 1 48 -2 45 -16z m-402 -128 c20 -21 45 -35 59 -35 30 0 43 -18 18 -26 -10 -3 -55 -21 -100 -40 -104 -43 -119 -43 -127 -1 -3 17 -9 44 -12 59 -6 28 20 49 86 69 38 11 38 11 76 -26z m-266 -94 c0 -10 10 -31 22 -46 25 -32 24 -33 -62 -82 -25 -14 -70 -41 -102 -59 -70 -42 -78 -42 -78 1 0 19 -6 44 -12 55 -20 31 -1 49 103 102 103 52 129 58 129 29z m520 -11 c0 -6 -11 -15 -25 -20 -14 -5 -45 -18 -68 -29 -56 -26 -140 -59 -197 -78 -57 -19 -76 -36 -84 -76 -4 -17 -22 -74 -41 -127 -18 -52 -66 -185 -105 -295 -260 -726 -450 -1200 -566 -1407 -55 -98 -55 -98 -99 -98 -33 0 -51 -6 -70 -24 -33 -30 -27 -42 22 -49 43 -6 89 -25 148 -62 22 -14 51 -29 65 -35 14 -6 34 -14 45 -19 29 -13 126 -49 153 -56 16 -5 30 -1 43 10 23 22 44 8 52 -33 16 -78 225 -225 372 -261 28 -7 66 -17 86 -23 53 -15 353 2 373 22 6 6 20 10 33 10 19 0 88 21 158 49 180 72 445 258 445 312 0 12 -30 40 -80 75 -86 60 -93 75 -39 85 19 3 84 31 144 62 61 31 182 92 270 135 88 43 169 84 180 90 40 23 109 52 123 52 16 0 12 -72 -7 -150 -7 -25 -16 -61 -21 -80 -48 -197 -235 -657 -263 -647 -6 2 -14 16 -18 31 -5 16 -28 69 -53 118 -52 101 -53 108 -27 108 17 0 69 -86 85 -142 9 -29 24 -21 37 20 6 20 38 98 69 172 71 168 151 403 164 482 7 37 -6 59 -21 36 -4 -7 -19 -19 -33 -27 -14 -8 -77 -44 -140 -81 -126 -72 -142 -80 -309 -155 -63 -29 -116 -56 -118 -62 -2 -6 26 -29 62 -53 36 -23 65 -48 65 -55 0 -19 -128 -143 -195 -188 -33 -23 -66 -46 -72 -53 -7 -7 -39 -25 -70 -41 -32 -15 -59 -31 -61 -35 -2 -5 -10 -8 -18 -8 -7 0 -29 -9 -49 -20 -20 -11 -42 -20 -50 -20 -9 0 -23 -4 -33 -9 -55 -28 -115 -47 -192 -61 -36 -6 -84 -16 -107 -21 -54 -12 -198 -12 -237 0 -17 5 -51 15 -76 21 -77 21 -199 78 -236 111 -11 11 -25 19 -30 19 -5 0 -41 32 -79 70 -38 39 -76 70 -84 70 -35 0 -263 76 -356 119 -99 46 -156 71 -163 71 -4 0 -20 7 -37 16 -34 18 -136 4 -165 -21 -42 -38 -242 35 -380 138 -72 53 -240 217 -240 234 0 7 -4 13 -10 13 -5 0 -10 7 -10 15 0 8 -4 15 -10 15 -5 0 -10 9 -10 21 0 12 -5 19 -12 17 -17 -6 -23 -67 -9 -81 6 -6 11 -19 11 -29 0 -10 7 -21 16 -25 15 -5 15 -7 0 -15 -9 -5 -16 -14 -16 -19 0 -6 4 -7 10 -4 16 10 33 -5 21 -18 -6 -8 -2 -18 14 -30 15 -10 26 -13 30 -7 3 5 14 10 23 10 13 0 10 -6 -10 -24 -16 -13 -28 -26 -28 -30 0 -13 28 -5 34 9 4 12 15 5 43 -27 21 -24 42 -45 46 -46 4 -2 3 -10 -4 -18 -15 -19 1 -18 29 2 20 14 22 14 22 -1 0 -8 -9 -23 -20 -32 -11 -10 -20 -21 -20 -25 0 -16 22 -8 40 15 21 26 37 18 21 -12 -16 -28 4 -37 23 -9 13 19 16 19 22 5 3 -9 12 -17 19 -17 7 0 24 -9 37 -20 74 -62 90 -72 108 -67 13 3 20 0 20 -9 0 -7 6 -11 14 -8 8 3 17 1 21 -5 3 -6 15 -11 26 -11 10 0 28 -6 39 -12 17 -11 22 -10 29 1 5 8 16 11 25 8 9 -4 19 1 25 11 9 16 10 16 16 1 5 -15 9 -14 30 7 30 30 60 32 52 4 -7 -26 -1 -25 35 5 16 14 35 25 41 24 8 0 8 -2 0 -6 -26 -10 -15 -36 12 -29 23 6 30 -1 26 -26 -1 -11 17 -10 23 1 3 4 18 6 32 3 27 -5 27 -5 -2 -17 -26 -11 -27 -13 -10 -20 11 -5 27 -3 38 4 17 11 24 9 42 -7 11 -11 41 -25 66 -32 25 -6 55 -18 67 -26 53 -34 113 -64 127 -64 8 0 24 -9 34 -20 19 -20 19 -20 38 5 24 32 34 32 35 -2 0 -16 3 -22 6 -15 9 23 28 11 71 -43 39 -48 46 -53 59 -40 8 8 20 15 26 15 8 0 8 -3 2 -8 -10 -7 -35 -48 -35 -57 0 -3 5 -5 10 -5 6 0 10 7 10 15 0 25 25 17 49 -16 12 -16 28 -28 34 -26 7 2 29 -7 49 -20 21 -12 51 -23 68 -23 17 0 39 -9 51 -21 16 -16 23 -18 35 -8 18 15 29 6 20 -17 -3 -9 -13 -14 -21 -10 -8 3 -17 1 -20 -4 -4 -6 7 -10 24 -10 22 0 31 6 37 22 6 20 7 21 19 4 10 -13 15 -14 21 -5 5 9 10 5 16 -10 7 -19 11 -21 23 -11 12 10 50 11 147 8 118 -5 129 -4 107 9 -23 13 -21 14 29 10 29 -2 55 0 58 4 3 5 25 9 50 9 24 0 44 5 44 10 0 6 6 10 14 10 7 0 19 6 25 14 7 8 26 18 42 21 16 4 29 10 29 15 0 4 10 6 21 3 14 -4 27 0 35 12 8 11 19 15 30 11 11 -4 26 2 41 15 12 13 26 19 30 15 11 -11 -47 -55 -64 -49 -16 6 -17 -9 -2 -24 8 -8 8 -13 0 -17 -6 -4 -11 0 -11 8 0 29 -26 17 -38 -18 -10 -27 -17 -33 -32 -29 -12 3 -20 0 -20 -7 0 -7 -7 -10 -15 -6 -16 6 -44 -6 -77 -32 -11 -9 -28 -11 -47 -7 -24 5 -31 3 -31 -9 0 -9 5 -16 10 -16 6 0 10 -4 10 -10 0 -5 -7 -10 -15 -10 -8 0 -15 5 -15 10 0 6 -8 5 -20 -2 -15 -10 -22 -10 -32 0 -19 19 -28 14 -28 -13 0 -21 -24 -45 -44 -45 -15 0 -4 31 16 44 19 14 20 16 5 16 -24 0 -71 -45 -65 -62 4 -10 -2 -13 -28 -10 -19 2 -40 0 -47 -6 -7 -6 -41 -18 -77 -27 -36 -9 -81 -21 -100 -26 -19 -6 -50 -13 -67 -16 -18 -3 -33 -9 -33 -14 0 -5 -9 -9 -19 -9 -11 0 -23 -5 -26 -10 -3 -6 -12 -10 -18 -9 -9 0 -9 2 1 6 6 2 12 11 12 19 0 17 -27 19 -33 2 -3 -10 -8 -10 -21 1 -13 11 -20 11 -28 3 -9 -9 -8 -12 6 -12 10 0 16 -6 13 -12 -4 -13 -46 -12 -60 1 -13 13 -56 0 -59 -17 -3 -17 -107 -40 -263 -60 -192 -25 -249 -35 -286 -50 -15 -6 -29 -8 -32 -5 -3 3 -22 0 -41 -7 -35 -11 -37 -10 -71 26 -40 42 -41 44 -20 44 12 0 10 5 -5 20 -12 12 -25 18 -31 14 -6 -3 -3 -11 7 -18 13 -10 14 -15 5 -20 -7 -5 -18 0 -26 10 -18 24 -18 33 0 40 8 4 15 12 15 20 0 16 -9 18 -29 5 -11 -7 -23 0 -44 25 -16 19 -34 34 -40 34 -11 0 -36 30 -37 44 0 5 7 3 15 -4 12 -10 15 -10 15 4 0 11 -9 16 -26 16 -21 0 -24 3 -19 21 5 14 3 19 -4 15 -12 -8 -51 14 -51 30 0 13 -39 49 -62 57 -10 4 -18 13 -18 21 0 7 -7 17 -15 20 -9 3 -22 20 -30 38 -8 18 -26 47 -40 63 -14 17 -25 36 -25 43 0 6 -11 12 -23 12 -16 0 -28 9 -35 25 -6 14 -16 25 -21 25 -5 0 -12 13 -16 29 -3 16 -17 37 -31 45 -13 9 -24 25 -24 35 0 10 -7 24 -15 31 -8 7 -15 23 -15 36 0 12 -4 26 -10 29 -5 3 -10 -3 -10 -14 0 -11 -4 -22 -9 -25 -14 -9 -20 45 -8 71 5 13 7 26 2 31 -4 4 -10 2 -12 -5 -5 -14 -33 -6 -33 9 0 18 -35 55 -48 50 -6 -2 -12 1 -12 7 0 6 5 11 10 11 6 0 3 11 -6 25 -9 14 -20 22 -25 19 -5 -3 -6 2 -2 11 3 10 0 21 -8 26 -11 7 -12 12 -1 29 7 11 8 20 3 20 -6 0 -13 -4 -16 -10 -9 -15 -25 -12 -25 5 0 8 5 15 10 15 6 0 10 8 10 17 0 13 -3 14 -12 5 -8 -8 -17 1 -36 41 -13 29 -33 62 -44 74 -11 12 -18 28 -15 35 4 9 6 7 6 -4 1 -10 7 -18 15 -18 7 0 19 -7 26 -15 7 -8 16 -12 21 -9 13 8 11 24 -3 24 -20 0 -57 51 -69 94 -16 61 -29 82 -40 65 -4 -7 -11 -10 -15 -6 -4 3 -1 14 7 23 11 14 10 17 -4 25 -18 11 -23 39 -7 39 6 0 10 10 10 23 -1 21 -1 21 -14 4 -18 -23 -31 -5 -16 22 5 11 10 27 10 36 0 15 -2 15 -15 1 -8 -8 -15 -19 -15 -25 0 -6 -4 -11 -10 -11 -14 0 -12 28 2 32 12 4 2 53 -23 113 -12 31 -22 67 -25 95 -1 14 -6 42 -10 63 -5 29 -3 37 8 37 20 0 71 -49 86 -82 6 -16 16 -28 20 -28 5 0 12 -18 15 -39 3 -22 15 -50 27 -63 28 -30 45 -71 31 -76 -6 -2 -9 -8 -6 -12 3 -5 12 -7 20 -3 11 3 15 -2 15 -19 0 -14 17 -42 42 -70 24 -25 43 -50 43 -55 2 -81 269 -325 431 -393 117 -49 170 -57 241 -38 32 9 78 22 103 28 84 23 116 46 179 133 55 77 168 287 186 347 4 14 27 66 50 116 23 49 66 153 95 230 29 76 61 155 70 174 10 19 29 67 43 105 14 39 53 144 87 235 34 91 92 253 130 360 37 107 73 207 80 222 20 42 7 62 -27 44 -79 -40 -115 -99 -186 -301 -85 -243 -289 -766 -389 -1000 -76 -177 -154 -325 -255 -483 -36 -56 -70 -72 -59 -27 4 15 0 40 -8 58 -7 18 -21 59 -31 92 -9 33 -23 79 -32 103 -18 50 -19 270 -3 367 17 94 98 343 138 420 129 250 356 489 602 633 41 24 100 70 131 102 36 37 70 62 95 69 22 7 55 21 74 30 19 10 64 28 100 40 36 12 74 26 85 32 129 60 225 85 225 59z m-850 -172 c0 -12 12 -34 26 -49 31 -33 29 -37 -42 -84 -56 -37 -56 -37 -81 -10 -21 22 -31 26 -59 20 -44 -8 -43 2 4 47 91 89 152 119 152 76z m700 -17 c0 -11 -4 -23 -10 -26 -5 -3 -10 -25 -10 -48 0 -23 -7 -55 -15 -70 -8 -16 -14 -38 -12 -49 3 -26 -20 -36 -26 -11 -3 10 -3 -3 0 -28 3 -27 1 -49 -5 -53 -6 -3 -8 -15 -5 -26 3 -11 0 -20 -6 -20 -17 0 -43 -72 -37 -102 3 -17 0 -28 -9 -32 -8 -3 -15 -14 -15 -25 0 -11 -9 -25 -19 -31 -16 -8 -18 -15 -11 -41 11 -37 -4 -73 -26 -65 -17 7 -18 -8 -2 -33 9 -15 8 -22 -5 -36 -9 -9 -17 -23 -17 -31 0 -8 -5 -14 -11 -14 -6 0 -9 -10 -8 -22 2 -23 -5 -48 -21 -79 -5 -9 -11 -37 -15 -63 -4 -25 -15 -56 -25 -69 -9 -12 -21 -37 -25 -55 -3 -18 -13 -39 -21 -47 -20 -19 -8 -41 12 -24 27 22 24 3 -5 -28 -21 -23 -27 -39 -24 -57 4 -20 1 -26 -13 -26 -15 0 -16 -2 -5 -9 10 -7 8 -18 -13 -55 -14 -26 -26 -62 -26 -81 0 -18 -5 -37 -10 -40 -6 -4 -8 -16 -5 -27 4 -11 1 -27 -8 -36 -20 -24 -47 -78 -41 -84 2 -3 -7 -39 -21 -81 -14 -42 -25 -85 -25 -97 0 -12 -5 -31 -12 -43 -6 -12 -11 -34 -10 -49 1 -15 -2 -29 -8 -33 -5 -3 -10 -17 -10 -30 0 -13 -4 -27 -10 -30 -5 -3 -10 -41 -10 -85 0 -62 -3 -79 -16 -84 -28 -11 -37 4 -30 53 4 25 9 67 13 94 3 26 10 50 14 53 5 3 9 18 9 34 0 16 5 32 10 35 6 3 10 21 10 40 0 19 4 44 9 57 5 13 15 43 21 68 17 61 42 120 51 120 4 0 5 9 2 20 -7 25 -26 12 -46 -29 -9 -19 -20 -25 -37 -23 -20 2 -22 0 -10 -8 10 -6 11 -13 5 -17 -6 -5 -16 -21 -23 -36 -13 -31 -31 -28 -33 6 -1 18 -2 18 -6 4 -3 -10 0 -30 5 -45 12 -35 4 -95 -13 -89 -8 4 -10 -2 -8 -17 3 -13 -2 -30 -11 -39 -20 -20 -20 -27 -1 -27 21 0 19 -12 -6 -39 -16 -17 -18 -26 -10 -34 17 -17 13 -37 -9 -37 -11 0 -20 -4 -20 -10 0 -5 6 -10 13 -10 10 0 12 -13 10 -47 -4 -55 -16 -72 -36 -55 -16 14 -28 6 -20 -14 9 -24 -11 -15 -37 16 -13 17 -29 30 -36 30 -6 0 -23 9 -37 20 -25 20 -46 13 -32 -10 3 -6 1 -10 -4 -10 -23 0 -3 67 31 104 10 11 18 26 18 34 0 9 6 12 15 8 20 -7 55 14 55 33 0 11 -4 11 -18 -2 -43 -39 -44 0 -2 53 17 21 30 44 30 51 0 7 7 21 16 31 13 14 14 21 5 32 -7 8 -9 21 -5 27 5 9 11 7 20 -6 18 -25 32 -10 16 16 -11 17 -11 24 0 36 15 18 33 49 49 83 6 14 15 33 20 43 5 9 7 28 3 42 -4 15 -2 25 5 25 6 0 11 14 11 30 0 17 5 30 11 30 5 0 7 -5 4 -10 -7 -11 22 -26 32 -16 3 3 -2 15 -12 26 -16 17 -16 20 -2 26 19 7 52 88 42 103 -3 6 -1 11 4 11 6 0 11 6 11 14 0 8 6 27 14 43 33 66 55 120 61 151 4 18 18 46 31 61 14 17 20 32 15 36 -6 3 -15 -4 -21 -15 -6 -11 -16 -20 -23 -20 -8 0 -8 3 -2 8 6 4 16 20 23 35 8 19 18 27 27 23 17 -6 19 3 5 38 -8 21 -7 24 7 19 13 -5 14 -3 3 16 -10 19 -9 22 6 19 14 -2 20 6 24 32 4 19 11 44 17 55 15 28 53 149 53 169 0 9 7 16 15 16 8 0 15 -8 15 -17 0 -15 2 -16 10 -3 5 8 5 17 1 20 -13 9 -20 39 -10 45 5 4 7 10 4 14 -2 5 7 30 20 57 14 27 25 59 25 72 0 13 7 30 15 38 8 9 15 28 15 44 0 15 7 41 15 56 8 16 15 37 15 46 0 42 25 65 33 31 2 -10 2 -2 0 18 -5 45 25 84 77 98 52 14 60 13 60 -8z m-2375 -121 c3 -11 -4 -41 -19 -72 -14 -29 -62 -165 -107 -303 -45 -137 -93 -281 -106 -318 -29 -79 -25 -88 22 -62 20 10 38 15 41 12 15 -15 -10 -40 -68 -67 -35 -16 -75 -37 -90 -47 -35 -23 -46 -10 -26 30 9 18 33 93 53 167 54 195 194 543 272 673 8 13 22 7 28 -13z m1489 -40 c16 -17 33 -30 38 -30 23 0 3 -38 -30 -57 -20 -12 -70 -51 -110 -87 -78 -71 -91 -77 -99 -47 -3 11 -18 24 -35 30 -35 12 -35 12 57 110 67 70 118 111 140 111 6 0 23 -14 39 -30z m-1444 -63 c12 -25 21 -32 42 -30 26 2 26 0 15 -24 -9 -21 -9 -27 1 -31 6 -2 12 -12 12 -22 0 -10 7 -31 15 -46 10 -20 15 -23 15 -11 0 9 5 17 11 17 8 0 10 -14 5 -42 -4 -33 -3 -39 5 -25 13 21 32 12 24 -12 -3 -11 4 -28 21 -44 22 -22 24 -28 11 -33 -15 -5 -15 -8 -1 -29 8 -13 17 -38 19 -56 3 -17 11 -39 20 -49 8 -9 15 -24 15 -33 0 -9 5 -19 10 -22 13 -8 13 -75 1 -75 -12 0 -34 44 -52 103 -7 26 -17 47 -21 47 -14 0 -17 -18 -8 -50 5 -18 7 -30 4 -27 -3 3 -14 -3 -25 -14 -10 -10 -25 -19 -33 -19 -8 0 -17 -7 -20 -16 -3 -9 -12 -14 -20 -11 -10 4 -12 0 -9 -14 6 -23 -4 -24 -28 -3 -11 10 -19 12 -24 5 -3 -6 1 -11 9 -11 9 0 16 -7 16 -15 0 -8 -7 -15 -15 -15 -12 0 -11 -4 5 -20 25 -25 27 -48 3 -29 -15 12 -16 12 -10 -5 4 -10 2 -25 -4 -32 -6 -8 -9 -20 -6 -29 4 -8 2 -17 -3 -20 -4 -3 -10 -1 -12 4 -10 25 -102 91 -128 91 -35 0 -45 13 -25 34 16 16 6 50 -20 68 -5 4 -6 11 -1 15 5 4 11 2 13 -4 7 -19 23 -16 23 5 0 9 9 43 20 76 11 32 17 62 14 67 -3 5 2 19 10 31 9 12 16 30 16 40 0 21 39 90 57 101 7 4 13 13 13 20 0 8 -3 7 -9 -2 -5 -7 -14 -10 -20 -7 -16 10 -13 36 4 36 18 0 21 46 3 53 -7 2 -9 8 -5 13 4 5 12 3 16 -4 4 -7 13 -12 19 -10 6 2 17 -6 25 -17 19 -25 36 -11 19 15 -7 11 -12 32 -12 47 0 29 -25 63 -47 63 -7 0 -13 9 -13 20 0 31 23 23 40 -13z m1144 -232 c11 -8 32 -15 46 -15 41 0 42 -9 6 -51 -18 -21 -45 -62 -61 -91 -15 -29 -39 -67 -52 -85 -24 -32 -24 -32 -71 -14 -26 10 -48 26 -50 35 -6 30 131 237 156 236 4 0 16 -7 26 -15z m-874 -369 c0 -14 -4 -28 -10 -31 -5 -3 -10 -3 -10 2 0 4 -3 18 -6 31 -5 16 -2 22 10 22 10 0 16 -9 16 -24z m690 12 c15 -10 27 -10 50 -1 37 14 41 -3 10 -45 -12 -15 -38 -77 -59 -136 -40 -115 -46 -122 -101 -128 -35 -3 -35 -3 -34 68 0 54 7 86 29 140 49 116 62 129 105 102z m-814 -16 c5 -5 36 -19 69 -32 69 -27 85 -37 85 -56 0 -16 -36 -19 -45 -4 -3 6 -19 10 -35 10 -16 0 -32 5 -35 10 -3 6 -17 10 -29 10 -33 0 -71 33 -63 53 7 18 37 23 53 9z m-53 -174 c4 -68 -3 -95 -24 -83 -9 6 -19 110 -12 134 12 47 30 20 36 -51z m-189 0 c9 -92 63 -338 96 -437 173 -530 383 -861 900 -1420 75 -80 153 -174 175 -209 32 -52 43 -63 59 -58 134 35 301 68 421 81 105 12 522 103 670 146 116 34 303 98 363 126 184 82 188 84 399 220 29 18 57 33 63 33 5 0 10 4 10 8 0 4 12 15 28 24 15 9 37 25 48 35 12 10 36 29 54 43 18 14 47 38 64 54 17 16 47 40 66 55 19 14 38 30 41 35 4 5 15 6 25 2 20 -8 5 -25 -98 -108 -22 -18 -45 -38 -52 -43 -99 -88 -498 -355 -531 -355 -1 0 -72 -33 -156 -74 -141 -67 -346 -142 -539 -195 -104 -29 -366 -81 -406 -81 -18 0 -35 -4 -38 -9 -3 -4 -39 -11 -81 -15 -41 -4 -133 -18 -203 -31 -171 -33 -177 -33 -206 13 -30 47 -133 161 -301 332 -451 461 -689 846 -833 1345 -12 39 -26 99 -32 135 -6 36 -14 72 -17 80 -4 8 -8 24 -9 35 -1 11 -5 36 -7 55 -9 62 -16 124 -22 183 -5 55 -4 57 18 57 22 0 25 -5 31 -62z m1019 -244 c-1 -16 -3 -78 -5 -138 -3 -99 -6 -110 -27 -127 -28 -23 -64 -25 -81 -5 -15 20 -24 147 -16 230 8 67 8 67 41 60 18 -3 42 -1 52 5 27 15 38 8 36 -25z m40 -409 c20 -64 17 -73 -28 -104 -19 -13 -35 -27 -35 -32 0 -27 -29 -3 -42 34 -41 118 -41 117 -4 117 12 0 32 9 46 20 37 29 44 25 63 -35z m71 -161 c28 -24 37 -37 29 -45 -14 -14 -159 -17 -173 -3 -14 14 -2 44 17 44 8 0 26 9 40 20 34 26 41 25 87 -16z m2620 -30 c9 -23 -16 -44 -38 -32 -12 7 -26 7 -42 -1 -27 -12 -32 -31 -9 -31 8 0 15 7 15 15 0 8 7 15 15 15 8 0 15 -7 15 -15 0 -9 6 -12 15 -9 9 4 15 0 15 -8 0 -26 -31 -78 -46 -78 -10 0 -14 -12 -14 -39 0 -22 -6 -46 -13 -53 -21 -20 -37 -54 -37 -77 0 -29 -13 -33 -55 -15 -40 17 -34 18 -125 -26 -9 -4 -14 -18 -12 -31 2 -21 1 -22 -10 -8 -7 9 -19 14 -25 12 -21 -7 -15 12 12 37 14 13 25 28 25 34 0 8 -2 8 -8 0 -12 -17 -42 -25 -36 -9 3 7 11 16 19 18 7 3 22 18 33 34 19 27 20 32 6 58 -11 22 -12 31 -2 43 11 12 10 17 -4 25 -13 9 -7 14 35 30 29 10 67 21 85 25 21 5 37 16 45 32 7 14 23 26 37 29 14 1 27 6 30 10 22 28 66 37 74 15z m-2017 -468 c12 -8 -19 -27 -36 -21 -33 10 -27 37 7 29 15 -4 28 -7 29 -8z m1342 -143 c23 -15 23 -17 6 -30 -11 -7 -24 -13 -29 -13 -6 0 -4 5 4 10 13 9 13 12 -2 24 -36 27 -16 36 21 9z m-1006 -714 c-6 -23 -21 -35 -53 -43 -25 -7 -25 -7 -2 13 12 10 22 25 22 33 -1 9 -5 8 -14 -4 -14 -20 -51 -24 -61 -8 -3 6 3 10 14 10 12 0 21 4 21 9 0 12 28 18 56 13 15 -3 20 -9 17 -23z"/>
<path d="M3503 5072 c-24 -24 -43 -48 -43 -52 0 -12 27 -20 66 -20 19 0 34 -4 34 -10 0 -18 40 -11 40 8 1 15 2 15 15 -3 40 -55 43 -56 73 -10 27 42 29 74 5 72 -10 0 -45 12 -78 28 -33 16 -62 30 -65 31 -3 0 -24 -19 -47 -44z"/>
<path d="M2995 4609 c-4 -6 2 -21 14 -33 12 -12 21 -30 21 -39 0 -9 4 -18 8 -21 15 -9 67 10 67 24 0 19 -102 83 -110 69z"/>
<path d="M2095 1660 c28 -12 45 -12 45 0 0 6 -15 10 -32 9 -28 0 -30 -2 -13 -9z"/>
<path d="M1895 1490 c-11 -5 -15 -9 -8 -9 6 -1 18 -4 27 -7 11 -4 16 -1 16 10 0 18 -6 19 -35 6z"/>
<path d="M3707 1118 c-10 -10 -15 -23 -11 -29 4 -6 14 -2 26 11 11 12 16 25 12 29 -5 5 -17 0 -27 -11z"/>
<path d="M1732 1110 c15 -23 28 -26 28 -6 0 8 -7 17 -16 20 -24 9 -25 8 -12 -14z"/>
<path d="M2800 2267 c0 -9 -7 -17 -15 -17 -8 0 -15 -7 -15 -15 0 -25 29 -17 36 10 4 14 4 29 0 32 -3 4 -6 -1 -6 -10z"/>
</g>
</svg>